<?xml version="1.0" encoding="UTF-8" standalone="no"?>
<!-- Created with Inkscape (http://www.inkscape.org/) -->

<svg
   width="135.22006mm"
   height="135.23341mm"
   viewBox="0 0 135.22006 135.23341"
   version="1.1"
   id="svg5"
   xml:space="preserve"
   inkscape:version="1.2.2 (b0a84865, 2022-12-01)"
   sodipodi:docname="parrot.svg"
   xmlns:inkscape="http://www.inkscape.org/namespaces/inkscape"
   xmlns:sodipodi="http://sodipodi.sourceforge.net/DTD/sodipodi-0.dtd"
   xmlns="http://www.w3.org/2000/svg"
   xmlns:svg="http://www.w3.org/2000/svg"><sodipodi:namedview
     id="namedview7"
     pagecolor="#ffffff"
     bordercolor="#000000"
     borderopacity="0.25"
     inkscape:showpageshadow="2"
     inkscape:pageopacity="0.0"
     inkscape:pagecheckerboard="0"
     inkscape:deskcolor="#d1d1d1"
     inkscape:document-units="mm"
     showgrid="false"
     inkscape:zoom="0.67013252"
     inkscape:cx="408.12823"
     inkscape:cy="256.66565"
     inkscape:window-width="1728"
     inkscape:window-height="978"
     inkscape:window-x="0"
     inkscape:window-y="38"
     inkscape:window-maximized="1"
     inkscape:current-layer="layer1" /><defs
     id="defs2" /><g
     inkscape:label="Layer 1"
     inkscape:groupmode="layer"
     id="layer1"
     transform="translate(-33.859325,-65.839944)"><path
       style="fill:#2fb7d9;stroke-width:0.264583"
       d="m 95.119355,200.91486 c -13.29083,-1.38262 -25.99407,-6.56436 -36.115617,-14.73181 -7.62374,-6.15187 -13.67134,-13.69979 -18.09994,-22.59027 -3.2844,-6.59346 -5.38896,-13.27898 -6.53202,-20.7501 -0.68327,-4.46585 -0.68327,-14.31956 0,-18.78541 1.8829,-12.30679 6.86643,-23.78089 14.36451,-33.07292 6.15187,-7.623737 13.699787,-13.671338 22.590257,-18.099935 6.59346,-3.284396 13.27898,-5.388962 20.7501,-6.532023 4.46585,-0.683264 14.319555,-0.683264 18.785415,0 12.30679,1.882906 23.78088,6.866434 33.07292,14.364514 7.62373,6.151874 13.67133,13.699784 18.09993,22.590254 3.2844,6.59347 5.38896,13.27899 6.53202,20.75011 0.68327,4.46585 0.68327,14.31956 0,18.78541 -1.8829,12.30679 -6.86643,23.78088 -14.36451,33.07293 -6.15187,7.62373 -13.69979,13.67133 -22.59026,18.09993 -6.50495,3.24031 -13.40378,5.41842 -20.61781,6.50949 -3.27758,0.49571 -12.645785,0.72576 -15.874995,0.38983 z m 19.302515,-25.793 c 1.66196,-11.6279 2.89004,-18.67946 3.42085,-19.64221 0.10388,-0.1884 1.44248,2.25687 3.15025,5.75469 1.63329,3.34526 3.07495,6.0823 3.20369,6.0823 0.41849,0 0.5343,-1.11196 0.81404,-7.81638 0.6299,-15.09634 0.87161,-18.90891 1.23623,-19.49887 0.22813,-0.36912 1.59549,0.55561 6.17108,4.17349 5.69485,4.50286 8.77376,6.79087 8.92917,6.63546 0.29181,-0.29181 -2.80944,-5.53964 -15.88813,-26.88537 -4.94847,-8.0764 -10.2913,-16.85239 -11.87294,-19.50219 l -2.87571,-4.817817 -3.23146,-1.04702 c -1.77731,-0.57586 -4.42209,-1.36666 -5.8773,-1.75733 -5.426625,-1.456853 -7.221915,-2.016173 -10.260485,-3.196633 -1.71421,-0.66595 -3.73827,-1.63121 -4.49792,-2.14502 -1.36363,-0.92233 -1.40806,-0.9323 -3.49784,-0.78516 -1.16417,0.082 -2.89057,0.32472 -3.83646,0.53944 -0.94588,0.21472 -2.40093,0.52667 -3.23344,0.69323 -1.43162,0.28641 -1.52834,0.35567 -1.78447,1.27785 -0.15303,0.551 -0.27144,4.013293 -0.27228,7.96135 -0.002,6.9696 -2.1e-4,6.98517 0.52769,6.50743 0.50385,-0.45598 0.52917,-0.45639 0.52917,-0.009 0,0.40761 0.0585,0.42189 0.4391,0.10715 0.24151,-0.19972 1.35929,-1.55375 2.48394,-3.00896 3.01176,-3.89694 2.73927,-3.74799 4.62592,-2.52866 0.86854,0.56132 2.96256,2.43288 4.65338,4.15902 2.53073,2.58357 3.26975,3.52729 4.18016,5.33802 0.93185,1.85335 7.13862,13.57946 7.2584,13.71291 0.0216,0.0241 1.466995,0.36391 3.211955,0.75519 3.9405,0.88357 5.86209,1.58975 6.34581,2.33204 0.61417,0.94248 0.9114,3.55516 1.46489,12.87627 0.28947,4.87495 0.69884,10.58995 0.90972,12.7 0.21087,2.11005 0.45277,4.72943 0.53754,5.82084 0.0848,1.0914 0.32674,3.65125 0.53771,5.68854 0.43751,4.22511 1.07596,10.72433 1.33358,13.57557 0.0961,1.06365 0.21017,1.89708 0.25347,1.85209 0.0433,-0.045 0.45312,-2.70121 0.91069,-5.90266 z"
       id="path334" /></g></svg>
