<?xml version="1.0" encoding="UTF-8"?>
<!-- Created with Inkscape (http://www.inkscape.org/) -->
<svg width="507.93mm" height="507.93mm" version="1.1" viewBox="0 0 507.93 507.93" xml:space="preserve" xmlns="http://www.w3.org/2000/svg"><g transform="translate(-589.22 -15.343)"><g transform="translate(541.14 -23.911)" stroke-width=".26458"><path d="m291.38 547.05c0.1819-0.0734 0.47956-0.0734 0.66146 0s0.0331 0.13346-0.33073 0.13346c-0.36381 0-0.51263-0.0601-0.33073-0.13346zm20.638 0c0.1819-0.0734 0.47956-0.0734 0.66146 0s0.0331 0.13346-0.33073 0.13346c-0.36381 0-0.51263-0.0601-0.33073-0.13346zm-25.648-0.27009c0.191-0.0764 0.4192-0.067 0.50712 0.0209 0.0879 0.0879-0.0684 0.15047-0.34727 0.13898-0.30822-0.0127-0.37092-0.0754-0.15985-0.15986zm30.956 0c0.191-0.0764 0.41921-0.067 0.50713 0.0209 0.0879 0.0879-0.0684 0.15047-0.34727 0.13898-0.30824-0.0127-0.37092-0.0754-0.15986-0.15986zm-34.925-0.26458c0.191-0.0764 0.4192-0.067 0.50712 0.0209 0.0879 0.0879-0.0684 0.15047-0.34727 0.13899-0.30822-0.0127-0.37092-0.0754-0.15985-0.15986zm38.894 0c0.191-0.0764 0.41921-0.067 0.50713 0.0209 0.0879 0.0879-0.0684 0.15047-0.34727 0.13899-0.30824-0.0127-0.37092-0.0754-0.15986-0.15986zm147.69-61.832c0-0.0549 0.20836-0.26329 0.46302-0.46302 0.41966-0.32909 0.429-0.31975 0.0999 0.0999-0.34565 0.44071-0.56293 0.58089-0.56293 0.36311zm-336.85-2.4798c-0.32911-0.41965-0.31975-0.42899 0.0999-0.0999 0.44073 0.34566 0.58089 0.56293 0.36313 0.56293-0.0549 0-0.2633-0.20836-0.46302-0.46302zm339.23 0.36312c0-0.0549 0.20836-0.26329 0.46302-0.46303 0.41966-0.32908 0.429-0.31974 0.0999 0.0999-0.34565 0.44072-0.56293 0.58089-0.56293 0.36312zm3.3073-3.0751c0.26339-0.29104 0.53843-0.52916 0.61119-0.52916 0.0728 0-0.0832 0.23812-0.3466 0.52916s-0.53843 0.52917-0.61119 0.52917c-0.0728 0 0.0832-0.23813 0.3466-0.52917zm-345.71-0.19844c-0.32911-0.41965-0.31975-0.42899 0.0999-0.0999 0.25466 0.19973 0.46302 0.40809 0.46302 0.46302 0 0.21778-0.21727 0.0776-0.56291-0.36312zm352.46-6.2838c1.2305-1.2369 2.2968-2.249 2.3696-2.249 0.0728 0-0.87447 1.012-2.105 2.249s-2.2968 2.249-2.3696 2.249c-0.0728 0 0.87448-1.012 2.105-2.249zm-359.31-0.33073-1.4462-1.5214 1.5214 1.4462c0.83674 0.79541 1.5214 1.48 1.5214 1.5214 0 0.1964-0.253-0.0328-1.5965-1.4462zm-6.3747-6.6146c-0.32911-0.41966-0.31975-0.429 0.0999-0.0999 0.25466 0.19973 0.46302 0.40809 0.46302 0.46302 0 0.21778-0.21728 0.0776-0.56292-0.36311zm372.43-0.0661c0.26339-0.29104 0.53843-0.52916 0.61119-0.52916 0.0728 0-0.0832 0.23812-0.3466 0.52916s-0.53843 0.52917-0.61119 0.52917c-0.0728 0 0.0832-0.23813 0.3466-0.52917zm-375.35-3.1088c-0.3291-0.41966-0.31975-0.429 0.0999-0.0999 0.44073 0.34565 0.58089 0.56293 0.36312 0.56293-0.0549 0-0.2633-0.20836-0.46302-0.46302zm16.702-56.787c0-0.0549 0.20836-0.26329 0.46302-0.46302 0.41965-0.32909 0.42901-0.31975 0.0999 0.0999-0.34564 0.44071-0.56292 0.58089-0.56292 0.36311zm148.7-27.681c0-0.14552 0.12609-0.26459 0.2802-0.26459s0.20661 0.11907 0.11667 0.26459c-0.0899 0.14552-0.21602 0.26458-0.2802 0.26458-0.0642 0-0.11667-0.11906-0.11667-0.26458zm1.8521-1.952c0-0.0549 0.20836-0.26329 0.46302-0.46302 0.41965-0.32909 0.429-0.31975 0.0999 0.0999-0.34565 0.44072-0.56292 0.5809-0.56292 0.36312zm-120.39-5.0271c0-0.0549 0.20836-0.26329 0.46302-0.46303 0.41965-0.32908 0.42901-0.31974 0.0999 0.0999-0.34564 0.44072-0.56292 0.58089-0.56292 0.36312zm133.88-10.319c0-0.0549 0.20836-0.26329 0.46302-0.46303 0.41965-0.32908 0.429-0.31974 0.0999 0.0999-0.34565 0.44072-0.56292 0.58089-0.56292 0.36312zm7.6729-8.7312c0-0.0549 0.20836-0.26329 0.46302-0.46303 0.41964-0.32908 0.429-0.31974 0.0999 0.0999-0.34564 0.44072-0.56291 0.58089-0.56291 0.36312zm204.42-7.7935c-0.075-0.12129 0.0319-0.22051 0.23734-0.22051 0.20547 0 0.31228 0.0992 0.23733 0.22051-0.075 0.12126-0.18175 0.22048-0.23733 0.22048-0.0556 0-0.16238-0.0992-0.23734-0.22048zm-196.74-0.93776c0-0.0549 0.20836-0.26329 0.46302-0.46303 0.41965-0.32908 0.42901-0.31974 0.0999 0.0999-0.34564 0.44072-0.56292 0.58089-0.56292 0.36312zm194.43-1.686c-0.32909-0.41965-0.31975-0.42899 0.0999-0.0999 0.25466 0.19973 0.46302 0.40809 0.46302 0.46302 0 0.21778-0.21728 0.0776-0.56293-0.36312zm-2.3812-2.6458c-0.32909-0.41965-0.31975-0.42899 0.0999-0.0999 0.25466 0.19974 0.46302 0.4081 0.46302 0.46303 0 0.21777-0.21728 0.0776-0.56293-0.36312zm-2.3812-2.6458c-0.32909-0.41966-0.31975-0.429 0.0999-0.0999 0.25466 0.19973 0.46302 0.40809 0.46302 0.46302 0 0.21778-0.21728 0.0776-0.56293-0.36311zm-182-1.7536c0-0.0549 0.20836-0.26328 0.46302-0.46302 0.41966-0.32908 0.429-0.31974 0.0999 0.0999-0.34565 0.44072-0.56293 0.58089-0.56293 0.36311zm-121.44-4.2333c0-0.0549 0.20836-0.26329 0.46302-0.46302 0.41965-0.32909 0.429-0.31975 0.0999 0.0999-0.34565 0.44071-0.56292 0.58089-0.56292 0.36311zm129.12-4.4979c0-0.0549 0.20836-0.26328 0.46302-0.46302 0.41965-0.32908 0.42899-0.31974 0.0999 0.0999-0.34565 0.44072-0.56292 0.58089-0.56292 0.36311zm5.8208-6.6146c0-0.0549 0.20836-0.26329 0.46302-0.46302 0.41966-0.32909 0.429-0.31975 0.0999 0.0999-0.34565 0.44071-0.56293 0.58089-0.56293 0.36311zm225.18-6.9336c0.0127-0.30824 0.0754-0.37092 0.15986-0.15986 0.0764 0.191 0.067 0.4192-0.0209 0.50713-0.0879 0.0879-0.15047-0.0684-0.13898-0.34727zm-217.51-1.7977c0-0.0549 0.20836-0.26329 0.46302-0.46302 0.41965-0.32909 0.42899-0.31975 0.0999 0.0999-0.34565 0.44071-0.56292 0.58089-0.56292 0.36311zm-289.43-2.1711c0.0127-0.30824 0.07539-0.37092 0.15985-0.15986 0.07643 0.191 0.06703 0.4192-0.02089 0.50713-0.08792 0.0879-0.15045-0.0684-0.13896-0.34727zm507.21 0c0.0127-0.30824 0.0754-0.37092 0.15986-0.15986 0.0764 0.191 0.067 0.4192-0.0209 0.50713-0.0879 0.0879-0.15047-0.0684-0.13899-0.34727zm-43.392-2.9104c0.0127-0.30824 0.0754-0.37092 0.15986-0.15986 0.0764 0.19101 0.067 0.41921-0.0209 0.50713-0.0879 0.0879-0.15047-0.0684-0.13899-0.34727zm-464.06-2.2269c0-0.36381 0.06005-0.51264 0.13345-0.33073 0.0734 0.1819 0.0734 0.47955 0 0.66145-0.0734 0.18191-0.13345 0.0331-0.13345-0.33072zm507.74 0c0-0.36381 0.0601-0.51264 0.13346-0.33073 0.0734 0.1819 0.0734 0.47955 0 0.66145-0.0734 0.18191-0.13346 0.0331-0.13346-0.33072zm-210.39-1.4228c0-0.0549 0.20836-0.2633 0.46302-0.46302 0.41966-0.32911 0.429-0.31975 0.0999 0.0999-0.34565 0.44073-0.56293 0.58088-0.56293 0.36312zm-253.95-1.3553c0.0054-0.43656 0.06469-0.58313 0.13177-0.32569 0.06708 0.25743 0.06267 0.61462-0.0098 0.79375-0.07248 0.17913-0.12736-0.0315-0.12197-0.46806zm420.94-0.39687c0-0.36381 0.0601-0.51264 0.13346-0.33073 0.0734 0.1819 0.0734 0.47955 0 0.66145-0.0734 0.18191-0.13346 0.0331-0.13346-0.33072zm-159.32-6.9791c0-0.0549 0.20836-0.2633 0.46302-0.46302 0.41966-0.32911 0.429-0.31975 0.0999 0.0999-0.34565 0.44073-0.56293 0.58088-0.56293 0.36312zm-122.5-3.4396c0-0.0549 0.20836-0.2633 0.46302-0.46302 0.41964-0.32911 0.429-0.31975 0.0999 0.0999-0.34564 0.44073-0.56291 0.58089-0.56291 0.36313zm-139.12-4.0012c0.0054-0.43656 0.06469-0.58312 0.13177-0.32569 0.06708 0.25743 0.06267 0.61462-0.0098 0.79375-0.07248 0.17913-0.12736-0.0315-0.12197-0.46806zm420.94 0.13229c0-0.3638 0.0601-0.51263 0.13346-0.33072 0.0734 0.1819 0.0734 0.47955 0 0.66145-0.0734 0.18191-0.13346 0.0331-0.13346-0.33073zm-151.65-1.4228c0-0.0549 0.20836-0.2633 0.46302-0.46302 0.41965-0.32911 0.42899-0.31975 0.0999 0.0999-0.34565 0.44073-0.56292 0.58088-0.56292 0.36312zm90.454-0.62771c-0.32909-0.41964-0.31975-0.429 0.0999-0.0999 0.25466 0.19972 0.46302 0.40808 0.46302 0.46302 0 0.21776-0.21727 0.0776-0.56292-0.36313zm-403.15-1.1245c0-0.3638 0.06005-0.51263 0.13345-0.33072 0.0734 0.1819 0.0734 0.47955 0 0.66145-0.0734 0.18191-0.13345 0.0331-0.13345-0.33073zm507.74 0c0-0.3638 0.0601-0.51263 0.13346-0.33072 0.0734 0.1819 0.0734 0.47955 0 0.66145-0.0734 0.18191-0.13346 0.0331-0.13346-0.33073zm-106.97-1.5214c-0.32909-0.41964-0.31975-0.429 0.0999-0.0999 0.25466 0.19973 0.46302 0.40808 0.46302 0.46303 0 0.21776-0.21727 0.0776-0.56292-0.36313zm-357.13-1.0142c0.0127-0.30823 0.07539-0.37092 0.15985-0.15986 0.07643 0.191 0.06703 0.4192-0.02088 0.50712-0.08792 0.0879-0.15045-0.0683-0.13896-0.34726zm420.42 0c0.0127-0.30823 0.0754-0.37092 0.15986-0.15986 0.0764 0.191 0.067 0.4192-0.0209 0.50712-0.0879 0.0879-0.15047-0.0683-0.13899-0.34726zm-65.671-1.6316c-0.32909-0.41965-0.31975-0.42901 0.0999-0.0999 0.25466 0.19972 0.46302 0.40808 0.46302 0.46302 0 0.21776-0.21727 0.0776-0.56292-0.36312zm-398.14-1.0142c0.0127-0.30822 0.07539-0.37092 0.15985-0.15985 0.07643 0.19099 0.06703 0.4192-0.02089 0.50712-0.08792 0.0879-0.15045-0.0684-0.13896-0.34727zm507.21 0c0.0127-0.30822 0.0754-0.37092 0.15986-0.15985 0.0764 0.19099 0.067 0.4192-0.0209 0.50712-0.0879 0.0879-0.15047-0.0684-0.13899-0.34727zm-111.44-1.6316c-0.32909-0.41964-0.31975-0.429 0.0999-0.0999 0.25466 0.19972 0.46302 0.40808 0.46302 0.46302 0 0.21776-0.21727 0.0776-0.56292-0.36313zm111.18-2.3372c0.0127-0.30822 0.0754-0.37092 0.15986-0.15985 0.0764 0.19099 0.067 0.4192-0.0209 0.50712-0.0879 0.0879-0.15047-0.0684-0.13898-0.34727zm-113.56-0.30868c-0.32909-0.41964-0.31975-0.429 0.0999-0.0999 0.25466 0.19973 0.46302 0.40808 0.46302 0.46303 0 0.21776-0.21727 0.0776-0.56292-0.36313zm-2.3812-2.6458c-0.32909-0.41965-0.31975-0.42901 0.0999-0.0999 0.25466 0.19972 0.46302 0.40808 0.46302 0.46302 0 0.21776-0.21727 0.0776-0.56292-0.36312zm-65.054-1.489c0-0.0549 0.20836-0.2633 0.46302-0.46302 0.41965-0.32911 0.42899-0.31975 0.0999 0.0999-0.34565 0.44073-0.56292 0.58089-0.56292 0.36313zm62.672-1.1569c-0.32909-0.41964-0.31975-0.429 0.0999-0.0999 0.25466 0.19972 0.46302 0.40808 0.46302 0.46302 0 0.21776-0.21727 0.0776-0.56292-0.36313zm-2.3812-2.6458c-0.32909-0.41964-0.31975-0.429 0.0999-0.0999 0.25466 0.19973 0.46302 0.40808 0.46302 0.46303 0 0.21776-0.21727 0.0776-0.56292-0.36313zm-2.3812-2.6458c-0.32909-0.41965-0.31975-0.42901 0.0999-0.0999 0.25466 0.19972 0.46302 0.40808 0.46302 0.46302 0 0.21776-0.21727 0.0776-0.56292-0.36312zm-50.237-2.2827c0-0.0549 0.20836-0.2633 0.46302-0.46302 0.41966-0.32911 0.429-0.31975 0.0999 0.0999-0.34565 0.44073-0.56293 0.58089-0.56293 0.36313zm47.856-0.36313c-0.32909-0.41964-0.31975-0.429 0.0999-0.0999 0.25466 0.19972 0.46302 0.40808 0.46302 0.46302 0 0.21776-0.21727 0.0776-0.56292-0.36313zm-2.3812-2.6458c-0.32909-0.41964-0.31975-0.429 0.0999-0.0999 0.25466 0.19973 0.46302 0.40808 0.46302 0.46303 0 0.21776-0.21727 0.0776-0.56292-0.36313zm-166.65-2.2827c0-0.0549 0.20836-0.2633 0.46302-0.46302 0.41964-0.32911 0.429-0.31975 0.0999 0.0999-0.34564 0.44073-0.56291 0.58088-0.56291 0.36312zm164.27-0.36312c-0.32909-0.41965-0.31975-0.42901 0.0999-0.0999 0.25466 0.19972 0.46302 0.40808 0.46302 0.46302 0 0.21776-0.21727 0.0776-0.56292-0.36312zm-2.3812-2.6458c-0.32909-0.41964-0.31975-0.429 0.0999-0.0999 0.25466 0.19972 0.46302 0.40808 0.46302 0.46302 0 0.21776-0.21727 0.0776-0.56292-0.36313zm-25.366-9.1619c0-0.0549 0.20836-0.2633 0.46302-0.46302 0.41965-0.32911 0.42899-0.31975 0.0999 0.0999-0.34565 0.44073-0.56292 0.58089-0.56292 0.36313zm-118.8-8.2021c0-0.0549 0.20836-0.2633 0.46302-0.46303 0.41965-0.3291 0.429-0.31974 0.0999 0.0999-0.34565 0.44073-0.56292 0.58089-0.56292 0.36313zm126.47-0.52917c0-0.0549 0.20836-0.2633 0.46302-0.46302 0.41966-0.32911 0.429-0.31975 0.0999 0.0999-0.34565 0.44073-0.56293 0.58089-0.56293 0.36313zm-108.74-19.844c0-0.0549 0.20836-0.2633 0.46302-0.46302 0.41965-0.32911 0.42901-0.31975 0.0999 0.0999-0.34564 0.44073-0.56292 0.58089-0.56292 0.36313zm164.8-59.365c-0.32909-0.41964-0.31975-0.429 0.0999-0.0999 0.44071 0.34565 0.58089 0.56292 0.36311 0.56292-0.0549 0-0.26329-0.20836-0.46302-0.46302zm-2.1167-2.3812c-0.32909-0.41964-0.31975-0.429 0.0999-0.0999 0.44072 0.34565 0.58089 0.56292 0.36311 0.56292-0.0549 0-0.26328-0.20836-0.46302-0.46302zm-311.25-2.9766c0.26339-0.29104 0.53842-0.52917 0.61118-0.52917 0.0728 0-0.0832 0.23813-0.34659 0.52917s-0.53843 0.52917-0.61119 0.52917c-0.0728 0 0.0832-0.23813 0.3466-0.52917zm308.48-0.0662-0.50403-0.59531 0.59531 0.50403c0.55944 0.47366 0.71576 0.6866 0.50404 0.6866-0.0502 0-0.31811-0.2679-0.59532-0.59532zm-297.63-10.782c0.26339-0.29104 0.53842-0.52916 0.61118-0.52916 0.0728 0-0.0832 0.23812-0.3466 0.52916-0.26339 0.29104-0.53842 0.52917-0.61118 0.52917-0.0728 0 0.0832-0.23813 0.3466-0.52917zm286.78-0.0661-0.50403-0.59532 0.59531 0.50403c0.55943 0.47366 0.71575 0.6866 0.50403 0.6866-0.0502 0-0.31811-0.26789-0.59531-0.59531zm-3.0513-2.7781c-0.32909-0.41964-0.31975-0.429 0.0999-0.0999 0.25466 0.19973 0.46302 0.40808 0.46302 0.46303 0 0.21776-0.21728 0.0776-0.56293-0.36313zm50.8-10.319c-0.32909-0.41964-0.31975-0.429 0.0999-0.0999 0.44072 0.34565 0.58089 0.56292 0.36311 0.56292-0.0549 0-0.26328-0.20836-0.46302-0.46302zm-4.8862-5.424-0.50403-0.59531 0.59531 0.50403c0.55943 0.47366 0.71575 0.68659 0.50403 0.68659-0.0502 0-0.31811-0.26789-0.59531-0.59531zm-372.64 0.23084c0-0.0549 0.20836-0.2633 0.46302-0.46303 0.41964-0.3291 0.429-0.31974 0.0999 0.0999-0.34564 0.44073-0.56291 0.58089-0.56291 0.36313zm365.92-7.1762c-1.0841-1.0914-1.9116-1.9844-1.8388-1.9844 0.0728 0 1.0193 0.89296 2.1034 1.9844s1.9116 1.9844 1.8388 1.9844c-0.0728 0-1.0193-0.89297-2.1034-1.9844zm-359.32 0.33073c1.0964-1.1682 1.334-1.3782 1.334-1.1796 0 0.0425-0.56555 0.60801-1.2568 1.2568l-1.2568 1.1796zm6.7579-6.5484c0.26339-0.29104 0.53842-0.52916 0.61118-0.52916 0.0728 0-0.0832 0.23812-0.3466 0.52916-0.26339 0.29104-0.53842 0.52917-0.61118 0.52917-0.0728 0 0.0832-0.23813 0.3466-0.52917zm345.79-0.33073-0.50403-0.59531 0.59531 0.50403c0.55943 0.47366 0.71575 0.6866 0.50403 0.6866-0.0502 0-0.31811-0.2679-0.59531-0.59532zm-3.0513-2.7781c-0.32909-0.41965-0.31975-0.42901 0.0999-0.0999 0.44072 0.34565 0.58089 0.56292 0.36311 0.56292-0.0549 0-0.26328-0.20836-0.46302-0.46302zm-2.3812-2.1167c-0.32909-0.41964-0.31975-0.429 0.0999-0.0999 0.44072 0.34565 0.58089 0.56292 0.36311 0.56292-0.0549 0-0.26328-0.20836-0.46302-0.46302zm-174.78-19.299c0.25743-0.06708 0.61462-0.06267 0.79375 0.0098 0.17913 0.07248-0.0315 0.12736-0.46805 0.12197-0.43657-0.0054-0.58313-0.06469-0.3257-0.13177zm14.552 0c0.25744-0.06708 0.61462-0.06267 0.79375 0.0098 0.17914 0.07248-0.0315 0.12736-0.46805 0.12197-0.43656-0.0054-0.58313-0.06469-0.3257-0.13177zm-22.891-43.119c0.1819-0.0734 0.47956-0.0734 0.66146 0s0.0331 0.13345-0.33073 0.13345c-0.3638 0-0.51263-0.06005-0.33073-0.13345zm31.221 0c0.18191-0.0734 0.47956-0.0734 0.66146 0s0.0331 0.13345-0.33073 0.13345c-0.3638 0-0.51263-0.06005-0.33073-0.13345zm-25.929-0.26458c0.1819-0.0734 0.47956-0.0734 0.66146 0s0.0331 0.13345-0.33073 0.13345c-0.36381 0-0.51263-0.06005-0.33073-0.13345zm20.638 0c0.1819-0.0734 0.47956-0.0734 0.66146 0s0.0331 0.13345-0.33073 0.13345c-0.36381 0-0.51263-0.06005-0.33073-0.13345z" fill="#f5d9cb"/><path d="m292.58 547.04c0.25743-0.0671 0.61462-0.0627 0.79375 0.01 0.17913 0.0725-0.0315 0.12734-0.46806 0.12197-0.43656-5e-3 -0.58312-0.0647-0.32569-0.13179zm18.256 0c0.25743-0.0671 0.61462-0.0627 0.79375 0.01 0.17913 0.0725-0.0315 0.12734-0.46806 0.12197-0.43656-5e-3 -0.58312-0.0647-0.32569-0.13179zm-182.67-68.542c-0.32911-0.41965-0.31975-0.42899 0.0999-0.0999 0.25466 0.19973 0.46302 0.40809 0.46302 0.46302 0 0.21778-0.21727 0.0776-0.56291-0.36312zm-11.642-11.642c-0.32911-0.41966-0.31975-0.429 0.0999-0.0999 0.25466 0.19973 0.46302 0.40809 0.46302 0.46302 0 0.21778-0.21728 0.0776-0.56292-0.36311zm-24.816-160.03c0.0127-0.30824 0.07539-0.37092 0.15985-0.15986 0.07643 0.191 0.06703 0.4192-0.02088 0.50712-0.08792 0.0879-0.15045-0.0684-0.13896-0.34726zm-43.635-4.3436c0-0.3638 0.06005-0.51263 0.13345-0.33073 0.0734 0.1819 0.0734 0.47956 0 0.66146s-0.13345 0.0331-0.13345-0.33073zm507.75-0.13229c5e-3 -0.43656 0.0647-0.58313 0.13179-0.32569 0.0671 0.25743 0.0627 0.61462-0.01 0.79375-0.0725 0.17913-0.12734-0.0315-0.12197-0.46806zm-464.37-0.55121c0.0127-0.30823 0.07539-0.37092 0.15985-0.15986 0.07643 0.191 0.06703 0.4192-0.02088 0.50712-0.08792 0.0879-0.15045-0.0684-0.13896-0.34726zm420.97-0.37483c0-0.3638 0.0601-0.51263 0.13346-0.33073 0.0734 0.1819 0.0734 0.47956 0 0.66146s-0.13346 0.0331-0.13346-0.33073zm0-16.404c0-0.3638 0.0601-0.51263 0.13346-0.33073 0.0734 0.1819 0.0734 0.47956 0 0.66146s-0.13346 0.0331-0.13346-0.33073zm-420.97-0.15434c0.0127-0.30822 0.07539-0.37092 0.15985-0.15985 0.07643 0.19099 0.06703 0.4192-0.02088 0.50712-0.08792 0.0879-0.15045-0.0684-0.13896-0.34727zm464.37-0.7717c5e-3 -0.43656 0.0647-0.58313 0.13179-0.32569 0.0671 0.25743 0.0627 0.61461-0.01 0.79375-0.0725 0.17913-0.12734-0.0315-0.12197-0.46806zm-507.75-0.13229c0-0.3638 0.06005-0.51263 0.13345-0.33073 0.0734 0.1819 0.0734 0.47956 0 0.66146s-0.13345 0.0331-0.13345-0.33073zm408.97-133.28c-0.32909-0.41964-0.31975-0.429 0.0999-0.0999 0.44071 0.34564 0.58089 0.56291 0.36311 0.56291-0.0549 0-0.26329-0.20835-0.46302-0.46302zm-6.1922-6.4823-1.5792-1.6536 1.6536 1.5792c0.9095 0.86856 1.6536 1.6127 1.6536 1.6536 0 0.1955-0.26111-0.0431-1.7281-1.5792zm-297.78-0.0661c0.79042-0.80037 1.4967-1.4552 1.5694-1.4552 0.0728 0-0.51441 0.65484-1.3048 1.4552-0.79042 0.80036-1.4967 1.4552-1.5694 1.4552-0.0728 0 0.51442-0.65484 1.3048-1.4552zm291.27-6.1516c-0.32909-0.41964-0.31975-0.429 0.0999-0.0999 0.44071 0.34564 0.58089 0.56292 0.36311 0.56292-0.0549 0-0.26329-0.20836-0.46302-0.46303zm-328.05-18.158c0-0.0549 0.20836-0.2633 0.46302-0.46303 0.41964-0.3291 0.429-0.31974 0.0999 0.0999-0.34564 0.44073-0.56291 0.58089-0.56291 0.36313zm172.19-36.858c0.19099-0.07643 0.4192-0.06703 0.50712 0.02088 0.0879 0.08792-0.0684 0.15045-0.34727 0.13896-0.30823-0.0127-0.37092-0.07539-0.15985-0.15985zm26.988 0c0.191-0.07643 0.4192-0.06703 0.50712 0.02088 0.0879 0.08792-0.0684 0.15045-0.34726 0.13896-0.30824-0.0127-0.37092-0.07539-0.15986-0.15985zm-21.96-0.26458c0.191-0.07643 0.4192-0.06703 0.50712 0.02088 0.0879 0.08792-0.0684 0.15045-0.34727 0.13896-0.30822-0.0127-0.37092-0.07539-0.15985-0.15985zm16.669 0c0.191-0.07643 0.4192-0.06703 0.50712 0.02088 0.0879 0.08792-0.0684 0.15045-0.34727 0.13896-0.30822-0.0127-0.37092-0.07539-0.15985-0.15985zm10.583-42.863c0.19101-0.07643 0.41921-0.06703 0.50713 0.02089 0.0879 0.08792-0.0684 0.15045-0.34726 0.13896-0.30824-0.0127-0.37092-0.07539-0.15987-0.15985zm-28.327-0.52365c0.1819-0.0734 0.47956-0.0734 0.66146 0s0.0331 0.13345-0.33073 0.13345c-0.3638 0-0.51263-0.06005-0.33073-0.13345zm18.521 0c0.18191-0.0734 0.47956-0.0734 0.66146 0s0.0331 0.13345-0.33073 0.13345c-0.3638 0-0.51263-0.06005-0.33073-0.13345z" fill="#f1c8b3"/><path d="m293.9 547.04c0.25744-0.0671 0.61462-0.0627 0.79375 0.01 0.17914 0.0725-0.0315 0.12734-0.46805 0.12197-0.43656-5e-3 -0.58313-0.0647-0.3257-0.13179zm15.61 0c0.25743-0.0671 0.61462-0.0627 0.79375 0.01 0.17913 0.0725-0.0315 0.12734-0.46805 0.12197-0.43657-5e-3 -0.58313-0.0647-0.3257-0.13179zm-21.817-0.26197c0.19099-0.0764 0.4192-0.067 0.50712 0.0209 0.0879 0.0879-0.0684 0.15047-0.34727 0.13898-0.30823-0.0127-0.37092-0.0754-0.15985-0.15986zm28.31 0c0.19101-0.0764 0.41921-0.067 0.50713 0.0209 0.0879 0.0879-0.0684 0.15047-0.34726 0.13898-0.30824-0.0127-0.37092-0.0754-0.15987-0.15986zm159.86-68.446c0-0.0549 0.20836-0.26329 0.46302-0.46302 0.41965-0.32909 0.42899-0.31975 0.0999 0.0999-0.34565 0.44071-0.56292 0.58089-0.56292 0.36311zm10.583-10.583c0-0.0549 0.20836-0.26329 0.46302-0.46302 0.41966-0.32909 0.429-0.31975 0.0999 0.0999-0.34565 0.44072-0.56293 0.5809-0.56293 0.36312zm-437.86-156.16c0.0127-0.30824 0.07539-0.37092 0.15985-0.15986 0.07643 0.191 0.06703 0.4192-0.02089 0.50712-0.08792 0.0879-0.15045-0.0684-0.13896-0.34726zm-0.26458-4.2333c0.0127-0.30824 0.07539-0.37092 0.15985-0.15986 0.07643 0.19101 0.06703 0.41921-0.02089 0.50713-0.08792 0.0879-0.15045-0.0684-0.13896-0.34727zm507.21 0c0.0127-0.30824 0.0754-0.37092 0.15986-0.15986 0.0764 0.19101 0.067 0.41921-0.0209 0.50713-0.0879 0.0879-0.15047-0.0684-0.13899-0.34727zm-464.06-4.6082c0-0.3638 0.06006-0.51263 0.13345-0.33072 0.0734 0.1819 0.0734 0.47955 0 0.66145-0.0734 0.18191-0.13345 0.0331-0.13345-0.33073zm420.95-0.26458c0-0.3638 0.0601-0.51263 0.13346-0.33073 0.0734 0.1819 0.0734 0.47956 0 0.66146s-0.13346 0.0331-0.13346-0.33073zm-464.32-1.3229c0-0.50933 0.05445-0.71769 0.121-0.46303 0.06655 0.25467 0.06655 0.67138 0 0.92605-0.06655 0.25466-0.121 0.0463-0.121-0.46302zm507.73-0.1323c5e-3 -0.43656 0.0647-0.58312 0.13179-0.32569 0.0671 0.25743 0.0627 0.61462-0.01 0.79375-0.0725 0.17913-0.12734-0.0315-0.12197-0.46806zm-507.73-15.743c0-0.50933 0.05445-0.71769 0.121-0.46303 0.06655 0.25467 0.06655 0.67138 0 0.92605-0.06655 0.25466-0.121 0.0463-0.121-0.46302zm507.73 0.13229c5e-3 -0.43657 0.0647-0.58313 0.13179-0.3257 0.0671 0.25743 0.0627 0.61462-0.01 0.79375-0.0725 0.17913-0.12734-0.0315-0.12197-0.46805zm-464.34-1.5875c0.0054-0.43657 0.06469-0.58313 0.13177-0.3257 0.06708 0.25743 0.06267 0.61462-0.0098 0.79375-0.07248 0.17913-0.12736-0.0315-0.12197-0.46805zm420.95 0c5e-3 -0.43657 0.0647-0.58313 0.13179-0.3257 0.0671 0.25743 0.0627 0.61462-0.01 0.79375-0.0725 0.17913-0.12734-0.0315-0.12197-0.46805zm-464.11-4.7846c0.0127-0.30823 0.07539-0.37092 0.15985-0.15985 0.07643 0.19099 0.06703 0.4192-0.02089 0.50711-0.08792 0.0879-0.15045-0.0684-0.13896-0.34726zm43.392 0c0.0127-0.30823 0.07539-0.37092 0.15985-0.15985 0.07643 0.19099 0.06703 0.4192-0.02088 0.50711-0.08792 0.0879-0.15045-0.0684-0.13896-0.34726zm420.42 0c0.0127-0.30823 0.0754-0.37092 0.15986-0.15985 0.0764 0.19099 0.067 0.4192-0.0209 0.50711-0.0879 0.0879-0.15047-0.0684-0.13899-0.34726zm43.392 0c0.0127-0.30823 0.0754-0.37092 0.15986-0.15985 0.0764 0.19099 0.067 0.4192-0.0209 0.50711-0.0879 0.0879-0.15047-0.0684-0.13899-0.34726zm-506.94-4.2333c0.0127-0.30823 0.07539-0.37092 0.15985-0.15986 0.07643 0.191 0.06703 0.4192-0.02089 0.50712-0.08792 0.0879-0.15045-0.0684-0.13896-0.34726zm97.346-123.24c0-0.0549 0.20836-0.2633 0.46302-0.46303 0.41965-0.3291 0.429-0.31974 0.0999 0.0999-0.34565 0.44073-0.56292 0.58089-0.56292 0.36313zm4.6302-4.9272c0.56839-0.58208 1.093-1.0583 1.1657-1.0583 0.0728 0-0.33276 0.47626-0.90115 1.0583s-1.093 1.0583-1.1657 1.0583c-0.0728 0 0.33276-0.47625 0.90115-1.0583zm302.8 0.0661-0.91181-0.99218 0.99219 0.9118c0.9235 0.84868 1.1138 1.0726 0.91181 1.0726-0.0442 0-0.4907-0.44648-0.99219-0.99219zm-297.91-4.9609c0.49365-0.50933 0.95709-0.92605 1.0298-0.92605 0.0728 0-0.27161 0.41672-0.76527 0.92605-0.49365 0.50932-0.95708 0.92604-1.0298 0.92604-0.0728 0 0.27161-0.41672 0.76526-0.92604zm292.88-0.0661-0.91181-0.99219 0.99219 0.9118c0.9235 0.84868 1.1138 1.0726 0.9118 1.0726-0.0442 0-0.49069-0.44649-0.99218-0.99219zm-288.65-3.8702c0-0.0549 0.20836-0.2633 0.46302-0.46302 0.41965-0.32911 0.42901-0.31975 0.0999 0.0999-0.34564 0.44073-0.56292 0.58088-0.56292 0.36312zm326.99-18.884c-0.32909-0.41964-0.31975-0.429 0.0999-0.0999 0.44072 0.34564 0.58089 0.56292 0.36311 0.56292-0.0549 0-0.26328-0.20836-0.46302-0.46303zm-359.53-9.9556c0-0.0549 0.20836-0.2633 0.46302-0.46302 0.41965-0.32911 0.42901-0.31975 0.0999 0.0999-0.34564 0.44073-0.56292 0.58089-0.56292 0.36313zm348.95-0.62771c-0.32909-0.41964-0.31975-0.429 0.0999-0.0999 0.44071 0.34565 0.58089 0.56292 0.36311 0.56292-0.0549 0-0.26329-0.20836-0.46302-0.46302zm-183.78-25.649c0.25744-0.06708 0.61462-0.06267 0.79375 0.0098 0.17914 0.07248-0.0315 0.12736-0.46805 0.12197-0.43656-0.0054-0.58313-0.06469-0.3257-0.13177zm18.785 0c0.25743-0.06708 0.61462-0.06267 0.79375 0.0098 0.17913 0.07248-0.0315 0.12736-0.46805 0.12197-0.43657-0.0054-0.58313-0.06469-0.3257-0.13177zm-27.637-42.86c0.191-0.07643 0.4192-0.06703 0.50712 0.02089 0.0879 0.08792-0.0684 0.15045-0.34726 0.13896-0.30823-0.0127-0.37092-0.07539-0.15986-0.15985zm4.2333-0.26458c0.19099-0.07643 0.4192-0.06703 0.50712 0.02089 0.0879 0.08792-0.0684 0.15045-0.34727 0.13896-0.30823-0.0127-0.37092-0.07539-0.15985-0.15985zm28.31 0c0.19101-0.07643 0.41921-0.06703 0.50713 0.02089 0.0879 0.08792-0.0684 0.15045-0.34726 0.13896-0.30824-0.0127-0.37092-0.07539-0.15987-0.15985zm-22.374-0.26623c0.25466-0.06655 0.67138-0.06655 0.92604 0s0.0463 0.121-0.46302 0.121c-0.50933 0-0.71769-0.05445-0.46302-0.121zm15.875 0c0.25466-0.06655 0.67138-0.06655 0.92604 0s0.0463 0.121-0.46302 0.121c-0.50933 0-0.71769-0.05445-0.46302-0.121z" fill="#ebb092"/><path d="m295.22 547.04c0.25466-0.0666 0.67138-0.0666 0.92604 0 0.25466 0.0665 0.0463 0.12099-0.46302 0.12099-0.50933 0-0.71769-0.0544-0.46302-0.12099zm12.7 0c0.25466-0.0666 0.67138-0.0666 0.92604 0 0.25466 0.0665 0.0463 0.12099-0.46302 0.12099-0.50933 0-0.71769-0.0544-0.46302-0.12099zm-19.43-0.26295c0.19099-0.0764 0.4192-0.067 0.50712 0.0209 0.0879 0.0879-0.0684 0.15047-0.34727 0.13898-0.30823-0.0127-0.37092-0.0754-0.15985-0.15986zm26.723 0c0.19101-0.0764 0.41921-0.067 0.50713 0.0209 0.0879 0.0879-0.0684 0.15047-0.34726 0.13898-0.30824-0.0127-0.37092-0.0754-0.15987-0.15986zm-188.49-69.735-0.50403-0.59532 0.59531 0.50403c0.32743 0.27721 0.59532 0.5451 0.59532 0.59532 0 0.21172-0.21294 0.0554-0.6866-0.50403zm-8.8722-8.8636c-0.32911-0.41965-0.31975-0.42899 0.0999-0.0999 0.25466 0.19973 0.46302 0.40809 0.46302 0.46302 0 0.21778-0.21727 0.0776-0.56291-0.36312zm371.51-3.6056c0-0.0549 0.20836-0.26329 0.46302-0.46302 0.41965-0.32909 0.42899-0.31975 0.0999 0.0999-0.34565 0.44072-0.56292 0.5809-0.56292 0.36312zm66.167-158.01c0.0127-0.30824 0.0754-0.37092 0.15986-0.15986 0.0764 0.19101 0.067 0.41921-0.0209 0.50713-0.0879 0.0879-0.15047-0.0684-0.13899-0.34727zm-464.08-2.9104c0.0127-0.30823 0.07539-0.37092 0.15985-0.15985 0.07643 0.19099 0.06703 0.4192-0.02088 0.50712-0.08792 0.0879-0.15045-0.0684-0.13896-0.34727zm-43.361-3.9467c0.0054-0.43657 0.06469-0.58313 0.13177-0.3257 0.06708 0.25743 0.06267 0.61462-0.0098 0.79375-0.07248 0.17913-0.12736-0.0315-0.12197-0.46805zm507.75-0.13229c0-0.50933 0.0544-0.71769 0.12099-0.46303 0.0666 0.25467 0.0666 0.67138 0 0.92605-0.0665 0.25466-0.12099 0.0463-0.12099-0.46302zm-464.59-6.0854c0-0.80037 0.0496-1.1278 0.11022-0.72761 0.06062 0.40019 0.06062 1.055 0 1.4552s-0.11022 0.0728-0.11022-0.7276zm421.48 0c0-0.80037 0.0496-1.1278 0.11022-0.72761 0.0606 0.40019 0.0606 1.055 0 1.4552s-0.11022 0.0728-0.11022-0.7276zm43.109-6.6146c0-0.50932 0.0544-0.71768 0.12099-0.46302 0.0666 0.25467 0.0666 0.67138 0 0.92605-0.0665 0.25466-0.12099 0.0463-0.12099-0.46303zm-507.75-0.13229c0.0054-0.43656 0.06469-0.58312 0.13177-0.32569 0.06708 0.25743 0.06267 0.61462-0.0098 0.79375-0.07248 0.17913-0.12736-0.0315-0.12197-0.46806zm43.361-3.9908c0.0127-0.30823 0.07539-0.37092 0.15985-0.15986 0.07643 0.191 0.06703 0.4192-0.02088 0.50712-0.08792 0.0879-0.15045-0.0684-0.13896-0.34726zm420.95 0c0.0127-0.30823 0.0754-0.37092 0.15986-0.15986 0.0764 0.191 0.067 0.4192-0.0209 0.50712-0.0879 0.0879-0.15047-0.0684-0.13898-0.34726zm43.127-2.9104c0.0127-0.30823 0.0754-0.37092 0.15986-0.15985 0.0764 0.19099 0.067 0.4192-0.0209 0.50711-0.0879 0.0879-0.15047-0.0684-0.13899-0.34726zm-406.69-131.44c0-0.055 0.20836-0.2633 0.46302-0.46303 0.41964-0.3291 0.429-0.31974 0.0999 0.0999-0.34564 0.44073-0.56291 0.58089-0.56291 0.36313zm305.82-0.36313c-0.32909-0.41964-0.31975-0.429 0.0999-0.0999 0.44071 0.34565 0.58089 0.56292 0.36311 0.56292-0.0549 0-0.26329-0.20836-0.46302-0.46302zm-298.15-7.3098c0-0.0549 0.20836-0.2633 0.46302-0.46302 0.41965-0.32911 0.42901-0.31975 0.0999 0.0999-0.34564 0.44073-0.56292 0.58089-0.56292 0.36313zm290.48-0.36313c-0.32909-0.41964-0.31975-0.429 0.0999-0.0999 0.25466 0.19972 0.46302 0.40808 0.46302 0.46302 0 0.21776-0.21728 0.0776-0.56293-0.36313zm-328.98-22.291c0.26339-0.29104 0.53842-0.52917 0.61118-0.52917 0.0728 0-0.0832 0.23813-0.3466 0.52917-0.26339 0.29104-0.53842 0.52917-0.61118 0.52917-0.0728 0 0.0832-0.23813 0.3466-0.52917zm367.87 0.0661c-0.32909-0.41964-0.31975-0.429 0.0999-0.0999 0.44072 0.34564 0.58089 0.56292 0.36311 0.56292-0.0549 0-0.26328-0.20836-0.46302-0.46303zm-359.4-8.5328c0.26339-0.29104 0.53842-0.52917 0.61118-0.52917 0.0728 0-0.0832 0.23813-0.3466 0.52917-0.26339 0.29104-0.53842 0.52917-0.61118 0.52917-0.0728 0 0.0832-0.23813 0.3466-0.52917zm350.41-0.46302c-0.32909-0.41964-0.31975-0.429 0.0999-0.0999 0.44071 0.34565 0.58089 0.56292 0.36311 0.56292-0.0549 0-0.26329-0.20836-0.46302-0.46302zm-185.49-26.441c0.191-0.07643 0.4192-0.06703 0.50712 0.02088 0.0879 0.08792-0.0684 0.15045-0.34726 0.13896-0.30823-0.0127-0.37092-0.07539-0.15986-0.15985zm20.902 0c0.19099-0.07643 0.4192-0.06703 0.50712 0.02088 0.0879 0.08792-0.0684 0.15045-0.34727 0.13896-0.30823-0.0127-0.37092-0.07539-0.15985-0.15985zm-10.997-0.27335c0.40019-0.06062 1.055-0.06062 1.4552 0s0.0728 0.11022-0.7276 0.11022c-0.80037 0-1.1278-0.0496-0.72761-0.11022zm-12.816-42.854c0.19099-0.07643 0.4192-0.06703 0.50712 0.02089 0.0879 0.08792-0.0684 0.15045-0.34727 0.13896-0.30823-0.0127-0.37092-0.07539-0.15985-0.15985zm26.723 0c0.19101-0.07643 0.41921-0.06703 0.50713 0.02089 0.0879 0.08792-0.0684 0.15045-0.34726 0.13896-0.30824-0.0127-0.37092-0.07539-0.15987-0.15985zm-19.993-0.26623c0.25466-0.06655 0.67138-0.06655 0.92604 0s0.0463 0.121-0.46302 0.121c-0.50933 0-0.71769-0.05445-0.46302-0.121zm12.7 0c0.25466-0.06655 0.67138-0.06655 0.92604 0s0.0463 0.121-0.46302 0.121c-0.50933 0-0.71769-0.05445-0.46302-0.121z" fill="#e5946c"/><path d="m296.68 547.05c0.18191-0.0734 0.47956-0.0734 0.66146 0s0.0331 0.13346-0.33073 0.13346c-0.3638 0-0.51263-0.0601-0.33073-0.13346zm10.054 0c0.1819-0.0734 0.47956-0.0734 0.66146 0s0.0331 0.13346-0.33073 0.13346c-0.3638 0-0.51263-0.0601-0.33073-0.13346zm170.99-70.601c0.34176-0.3638 0.68093-0.66145 0.75369-0.66145 0.0728 0-0.14734 0.29765-0.48911 0.66145-0.34176 0.36381-0.68093 0.66146-0.75369 0.66146-0.0728 0 0.14735-0.29765 0.48911-0.66146zm-352.31-0.7276-0.77711-0.8599 0.8599 0.77711c0.80154 0.72438 0.98151 0.94268 0.7771 0.94268-0.0455 0-0.43249-0.38695-0.85989-0.85989zm-6.2153-6.2177-0.9118-0.99219 0.99219 0.91181c0.5457 0.50149 0.99219 0.94798 0.99219 0.99219 0 0.20203-0.2239 0.0116-1.0726-0.91181zm365.93-0.46302c0.34177-0.3638 0.68094-0.66146 0.7537-0.66146 0.0728 0-0.14735 0.29766-0.48911 0.66146-0.34177 0.3638-0.68093 0.66146-0.7537 0.66146-0.0728 0 0.14735-0.29766 0.48911-0.66146zm-437.04-170.66c0.0054-0.43656 0.06469-0.58313 0.13177-0.32569 0.06708 0.25743 0.06267 0.61462-0.0098 0.79375-0.07248 0.17913-0.12736-0.0315-0.12197-0.46806zm507.73-0.13229c0-0.3638 0.0601-0.51263 0.13346-0.33073 0.0734 0.1819 0.0734 0.47956 0 0.66146s-0.13346 0.0331-0.13346-0.33073zm-464.57-2.249c0.0021-0.7276 0.05337-0.99386 0.11419-0.59167 0.06082 0.40218 0.05919 0.99749-0.0036 1.3229-0.0628 0.32542-0.11256-4e-3 -0.11058-0.73124zm421.48-0.13229c0-0.65485 0.0516-0.92274 0.11465-0.59531 0.0631 0.32742 0.0631 0.8632 0 1.1906-0.063 0.32742-0.11465 0.0595-0.11465-0.59531zm-421.49-4.6302c0.0029-0.58208 0.05712-0.78905 0.12041-0.45994 0.06328 0.32912 0.06088 0.80537-0.0053 1.0583-0.06622 0.25296-0.118-0.0163-0.11507-0.5984zm421.48 0c3e-3 -0.58208 0.0571-0.78905 0.12041-0.45994 0.0633 0.32912 0.0609 0.80537-5e-3 1.0583-0.0662 0.25296-0.11801-0.0163-0.11507-0.5984zm-464.62-3.175c0.0054-0.43656 0.06469-0.58313 0.13177-0.32569 0.06708 0.25743 0.06267 0.61461-0.0098 0.79375-0.07248 0.17913-0.12736-0.0315-0.12197-0.46806zm507.73 0.13229c0-0.3638 0.0601-0.51263 0.13346-0.33073 0.0734 0.1819 0.0734 0.47956 0 0.66146s-0.13346 0.0331-0.13346-0.33073zm-70.97-171.12-0.64143-0.7276 0.72761 0.64143c0.40018 0.35279 0.7276 0.68021 0.7276 0.7276 0 0.20751-0.21426 0.0386-0.81378-0.64143zm-366.16 0.38023c0-0.0455 0.38695-0.43249 0.85989-0.85989l0.8599-0.77711-0.77711 0.8599c-0.72437 0.80154-0.94268 0.98151-0.94268 0.7771zm5.8208-5.8208c0-0.0455 0.38695-0.43249 0.8599-0.8599l0.85989-0.7771-0.7771 0.85989c-0.72437 0.80155-0.94269 0.98151-0.94269 0.77711zm353.33-1.5709-0.50403-0.59531 0.59531 0.50403c0.55943 0.47366 0.71575 0.6866 0.50403 0.6866-0.0502 0-0.31811-0.2679-0.59531-0.59532zm-160.49-27.102c0.191-0.07643 0.41921-0.06703 0.50713 0.02088 0.0879 0.08792-0.0684 0.15045-0.34727 0.13896-0.30824-0.0127-0.37092-0.07539-0.15986-0.15985zm-17.876-0.53081c0.25466-0.06655 0.67138-0.06655 0.92604 0s0.0463 0.121-0.46302 0.121-0.71768-0.05445-0.46302-0.121zm4.2333 0c0.25466-0.06655 0.67138-0.06655 0.92604 0 0.25467 0.06655 0.0463 0.121-0.46302 0.121s-0.71768-0.05445-0.46302-0.121zm-7.0115-43.12c0.18191-0.0734 0.47956-0.0734 0.66146 0s0.0331 0.13345-0.33073 0.13345c-0.3638 0-0.51263-0.06005-0.33073-0.13345zm10.054 0c0.1819-0.0734 0.47956-0.0734 0.66146 0s0.0331 0.13345-0.33073 0.13345c-0.3638 0-0.51263-0.06005-0.33073-0.13345z" fill="#e28658"/><path d="m298.26 547.03c0.47295-0.0587 1.2468-0.0587 1.7198 0 0.47294 0.0587 0.086 0.1067-0.8599 0.1067-0.94589 0-1.3328-0.048-0.8599-0.1067zm5.8208 0c0.47294-0.0587 1.2468-0.0587 1.7198 0s0.086 0.1067-0.8599 0.1067c-0.94588 0-1.3328-0.048-0.85989-0.1067zm170.06-67.277c0.26339-0.29105 0.53842-0.52917 0.61118-0.52917 0.0728 0-0.0832 0.23812-0.3466 0.52917-0.26339 0.29104-0.53843 0.52916-0.61119 0.52916-0.0728 0 0.0832-0.23812 0.34661-0.52916zm-344.65-0.19844c-0.3291-0.41966-0.31975-0.429 0.0999-0.0999 0.44073 0.34565 0.58089 0.56293 0.36312 0.56293-0.0549 0-0.2633-0.20836-0.46302-0.46302zm350.34-5.2255c0.79041-0.80037 1.4967-1.4552 1.5694-1.4552 0.0728 0-0.51443 0.65484-1.3048 1.4552-0.79042 0.80036-1.4967 1.4552-1.5694 1.4552-0.0728 0 0.51443-0.65485 1.3048-1.4552zm-357.46-1.6536-2.2431-2.3151 2.3151 2.2431c2.1502 2.0834 2.4356 2.3871 2.2431 2.3871-0.0396 0-1.0814-1.0418-2.3151-2.3151zm360.77-1.6536c0.71665-0.72761 1.3626-1.3229 1.4353-1.3229 0.0728 0-0.45408 0.59531-1.1707 1.3229-0.71665 0.7276-1.3626 1.3229-1.4353 1.3229-0.0728 0 0.45408-0.59531 1.1707-1.3229zm-367.67-5.4901c-0.32911-0.41965-0.31975-0.42899 0.0999-0.0999 0.44073 0.34566 0.58089 0.56293 0.36313 0.56293-0.0549 0-0.2633-0.20836-0.46302-0.46302zm372.57 0.36311c0-0.0549 0.20836-0.26328 0.46302-0.46302 0.41966-0.32908 0.429-0.31974 0.0999 0.0999-0.34565 0.44072-0.56293 0.58089-0.56293 0.36311zm-377.33-5.6548c-0.32911-0.41965-0.31975-0.42899 0.0999-0.0999 0.44073 0.34565 0.58089 0.56292 0.36313 0.56292-0.0549 0-0.2633-0.20835-0.46302-0.46302zm-62.387-154.74c0.0127-0.30824 0.07539-0.37092 0.15985-0.15986 0.07643 0.191 0.06703 0.4192-0.02089 0.50713-0.08792 0.0879-0.15045-0.0684-0.13896-0.34727zm417.19-5.3358c-0.32909-0.41965-0.31975-0.42901 0.0999-0.0999 0.25466 0.19972 0.46302 0.40808 0.46302 0.46302 0 0.21776-0.21727 0.0776-0.56292-0.36312zm-374.31-2.4474c0-0.3638 0.06006-0.51263 0.13345-0.33073 0.0734 0.1819 0.0734 0.47956 0 0.66146s-0.13345 0.0331-0.13345-0.33073zm371.93-0.19844c-0.32909-0.41964-0.31975-0.429 0.0999-0.0999 0.25466 0.19972 0.46302 0.40808 0.46302 0.46302 0 0.21776-0.21727 0.0776-0.56292-0.36313zm49.553-0.0661c0-0.3638 0.0601-0.51263 0.13345-0.33073 0.0734 0.1819 0.0734 0.47956 0 0.66146s-0.13345 0.0331-0.13345-0.33073zm-464.58-0.6615c0.0029-0.58208 0.05712-0.78905 0.1204-0.45994 0.06329 0.32912 0.06088 0.80537-0.0053 1.0583-0.06622 0.25296-0.118-0.0163-0.11507-0.5984zm507.74-0.26458c3e-3 -0.72761 0.0534-0.99386 0.1142-0.59168s0.0592 0.9975-4e-3 1.3229c-0.0628 0.32542-0.11255-4e-3 -0.11056-0.73124zm0-6.6146c3e-3 -0.7276 0.0534-0.99385 0.1142-0.59167s0.0592 0.99749-4e-3 1.3229c-0.0628 0.32542-0.11255-4e-3 -0.11056-0.73125zm-507.74-0.26458c0.0029-0.58208 0.05712-0.78905 0.1204-0.45994 0.06329 0.32912 0.06088 0.80537-0.0053 1.0583-0.06622 0.25296-0.118-0.0163-0.11507-0.5984zm43.136-0.52917c0.0021-0.7276 0.05337-0.99385 0.11419-0.59167 0.06082 0.40218 0.05919 0.99749-0.0036 1.3229-0.0628 0.32542-0.11256-4e-3 -0.11058-0.73125zm421.48 0.1323c0-0.65485 0.0516-0.92274 0.11465-0.59532 0.0631 0.32742 0.0631 0.86321 0 1.1906-0.063 0.32742-0.11465 0.0595-0.11465-0.59531zm-59.108-2.3151c-0.32909-0.41964-0.31975-0.429 0.0999-0.0999 0.25466 0.19973 0.46302 0.40808 0.46302 0.46303 0 0.21776-0.21727 0.0776-0.56292-0.36313zm-405.29-6.0413c0.0127-0.30822 0.07539-0.37092 0.15985-0.15985 0.07643 0.19099 0.06703 0.4192-0.02089 0.50712-0.08792 0.0879-0.15045-0.0684-0.13896-0.34727zm99.198-131.18c0-0.0549 0.20836-0.2633 0.46302-0.46302 0.41965-0.32911 0.429-0.31975 0.0999 0.0999-0.34565 0.44073-0.56292 0.58088-0.56292 0.36312zm308.47-0.36312c-0.32909-0.41965-0.31975-0.42901 0.0999-0.0999 0.44072 0.34565 0.5809 0.56292 0.36312 0.56292-0.0549 0-0.26329-0.20836-0.46302-0.46302zm-298.15-9.9556c0-0.0549 0.20836-0.2633 0.46302-0.46302 0.41965-0.32911 0.429-0.31975 0.0999 0.0999-0.34565 0.44073-0.56292 0.58088-0.56292 0.36312zm287.83-0.36312c-0.32909-0.41965-0.31975-0.42901 0.0999-0.0999 0.25466 0.19972 0.46302 0.40808 0.46302 0.46302 0 0.21776-0.21727 0.0776-0.56292-0.36312zm-333.08-14.983c0-0.0549 0.20836-0.2633 0.46302-0.46302 0.41965-0.32911 0.429-0.31975 0.0999 0.0999-0.34565 0.44073-0.56292 0.58089-0.56292 0.36313zm3.0427-3.3397c0.26339-0.29104 0.53842-0.52916 0.61118-0.52916 0.0728 0-0.0832 0.23812-0.3466 0.52916-0.26339 0.29104-0.53842 0.52917-0.61118 0.52917-0.0728 0 0.0832-0.23813 0.3466-0.52917zm372.63 0.0662c-0.32909-0.41965-0.31975-0.42901 0.0999-0.0999 0.25466 0.19972 0.46302 0.40808 0.46302 0.46302 0 0.21776-0.21728 0.0776-0.56293-0.36312zm-6.9822-7.276-2.9059-2.9766 2.9766 2.9059c2.7647 2.6991 3.0967 3.0472 2.9059 3.0472-0.0388 0-1.3783-1.3394-2.9766-2.9766zm-359.04 0.33073c1.1573-1.1642 2.1638-2.1167 2.2366-2.1167 0.0728 0-0.81463 0.9525-1.972 2.1167-1.1573 1.1642-2.1638 2.1167-2.2366 2.1167-0.0728 0 0.81462-0.9525 1.972-2.1167zm7.1438-6.8792c0.26339-0.29104 0.53842-0.52917 0.61118-0.52917 0.0728 0-0.0832 0.23813-0.34659 0.52917s-0.53843 0.52917-0.61119 0.52917c-0.0728 0 0.0832-0.23813 0.3466-0.52917zm344.85-0.19844c-0.32909-0.41964-0.31975-0.429 0.0999-0.0999 0.25466 0.19973 0.46302 0.40808 0.46302 0.46303 0 0.21776-0.21727 0.0776-0.56292-0.36313zm-177.17-24.333c0.40018-0.06062 1.055-0.06062 1.4552 0s0.0728 0.11022-0.72761 0.11022c-0.80036 0-1.1278-0.0496-0.7276-0.11022zm8.4667 0c0.40018-0.06062 1.055-0.06062 1.4552 0 0.40019 0.06062 0.0728 0.11022-0.7276 0.11022-0.80036 0-1.1278-0.0496-0.7276-0.11022zm-15.991-42.854c0.191-0.07643 0.4192-0.06703 0.50712 0.02089 0.0879 0.08792-0.0684 0.15045-0.34727 0.13896-0.30822-0.0127-0.37092-0.07539-0.15985-0.15985zm24.606 0c0.191-0.07643 0.41921-0.06703 0.50713 0.02089 0.0879 0.08792-0.0684 0.15045-0.34727 0.13896-0.30824-0.0127-0.37092-0.07539-0.15986-0.15985zm-15.887-0.27559c0.47555-0.05889 1.1899-0.05767 1.5875 0.0027 0.39758 0.06037 9e-3 0.10855-0.86463 0.10706-0.87313-0.0015-1.1984-0.05088-0.72287-0.10976zm6.0854 0c0.47555-0.05889 1.1899-0.05767 1.5875 0.0027s8e-3 0.10855-0.86463 0.10706c-0.87313-0.0015-1.1984-0.05088-0.72287-0.10976z" fill="#de7946"/><path d="m294.23 546.95c-52.305-1.5016-102.71-19.196-144.73-50.807-10.078-7.5815-16.879-13.527-26.749-23.383-9.8973-9.8836-16.745-17.737-24.35-27.929-14.202-19.031-25.938-40.537-34.24-62.742-8.3006-22.202-13.497-45.969-15.332-70.123-0.80686-10.621-0.80686-26.861 0-37.482 3.4268-45.108 18.43-87.887 43.722-124.66 9.363-13.615 17.842-23.763 30.078-36.002 9.7797-9.7816 17.303-16.354 27.271-23.823 26.902-20.159 57.612-34.819 90.06-42.992 28.755-7.2433 59.497-9.3648 89.458-6.1734 38.124 4.0609 74.544 16.703 107.55 37.33 11.028 6.893 21.86 14.979 32.787 24.476 4.8757 4.2375 18.725 18.089 22.972 22.975 37.028 42.602 58.282 93.242 62.521 148.96 0.7747 10.183 0.7747 27.124 0 37.306-3.1271 41.104-15.547 79.523-36.993 114.43-17.057 27.766-40.176 52.737-66.805 72.158-33.297 24.284-71.728 39.98-112.5 45.949-9.0989 1.3318-18.281 2.1711-26.326 2.4064-10.24 0.29941-11.954 0.31118-18.389 0.12645zm-141.89-166.62c14.022-16.113 48.7-55.966 77.064-88.563 28.364-32.597 57.761-66.381 65.328-75.076s13.822-15.808 13.902-15.808c0.13548 1e-3 29.212 51.822 30.267 53.942l0.48956 0.98395-30.865 61.73c-16.976 33.952-30.824 61.771-30.774 61.821 0.05 0.05 17.118-19.281 37.928-42.958 20.811-23.677 49.617-56.45 64.015-72.829l26.178-29.781 49.985 55.577c27.492 30.568 50.026 55.627 50.077 55.688 0.19391 0.2341 0.33494-0.25564 1.3983-4.856 7.6291-33.006 7.277-66.482-1.0433-99.206-12.647-49.74-43.469-93.499-86.253-122.46-24.079-16.297-51.05-27.345-79.589-32.604-33.634-6.1973-68.256-4.1616-100.93 5.9344-38.705 11.959-73.371 35.152-99.661 66.678-43.915 52.661-59.317 124.03-41.111 190.5 4.8456 17.691 11.996 34.608 21.471 50.8 2.9812 5.0946 6.2026 10.044 6.4414 9.8959 0.10577-0.0654 11.665-13.302 25.686-29.415z" fill="#db672d"/></g></g></svg>
