<?xml version="1.0" encoding="UTF-8" standalone="no"?>
<svg
   xmlns:dc="http://purl.org/dc/elements/1.1/"
   xmlns:cc="http://creativecommons.org/ns#"
   xmlns:rdf="http://www.w3.org/1999/02/22-rdf-syntax-ns#"
   xmlns:svg="http://www.w3.org/2000/svg"
   xmlns="http://www.w3.org/2000/svg"
   xmlns:sodipodi="http://sodipodi.sourceforge.net/DTD/sodipodi-0.dtd"
   xmlns:inkscape="http://www.inkscape.org/namespaces/inkscape"
   inkscape:version="1.0 (4035a4fb49, 2020-05-01)"
   sodipodi:docname="lxqt.svg"
   viewBox="0 0 354.6201 334.70719"
   height="334.70718"
   width="354.62009"
   xml:space="preserve"
   id="svg2"
   version="1.1"><metadata
     id="metadata8"><rdf:RDF><cc:Work
         rdf:about=""><dc:format>image/svg+xml</dc:format><dc:type
           rdf:resource="http://purl.org/dc/dcmitype/StillImage" /><dc:title /></cc:Work></rdf:RDF></metadata><defs
     id="defs6" /><sodipodi:namedview
     inkscape:current-layer="g10"
     inkscape:window-maximized="1"
     inkscape:window-y="0"
     inkscape:window-x="0"
     inkscape:cy="167.16775"
     inkscape:cx="242.7014"
     inkscape:zoom="1.9368385"
     fit-margin-bottom="0"
     fit-margin-right="0"
     fit-margin-left="0"
     fit-margin-top="0"
     showgrid="false"
     id="namedview4"
     inkscape:window-height="1008"
     inkscape:window-width="1904"
     inkscape:pageshadow="2"
     inkscape:pageopacity="0"
     guidetolerance="10"
     gridtolerance="10"
     objecttolerance="10"
     borderopacity="1"
     bordercolor="#666666"
     pagecolor="#ffffff"
     inkscape:document-rotation="0" /><g
     transform="matrix(1.3333333,0,0,1.3333333,-77.349222,-65.980816)"
     inkscape:label="Helix_lxqt"
     inkscape:groupmode="layer"
     id="g10"><path
       d="m 174.758,122.18 c -5.946,-6.442 -9.86,-14.723 -11.07,-23.403 -1.208,-8.675 0.3,-17.711 4.257,-25.527 3.957,-7.82 10.352,-14.383 18.063,-18.551 7.711,-4.168 16.711,-5.922 25.422,-4.953 14.015,1.559 27.015,10.414 33.582,22.887 l 78.965,10.883 h -90 c -5.614,-7.184 -14.098,-12.059 -23.133,-13.301 -6.453,-0.891 -13.145,0.043 -19.11,2.66 -5.961,2.617 -11.179,6.91 -14.894,12.254 -3.711,5.348 -5.91,11.734 -6.278,18.23 -0.363,6.5 1.106,13.09 4.196,18.821"
       style="fill:#e6e6e6;fill-opacity:1;fill-rule:nonzero;stroke:none"
       id="path14" /><path
       d="M 185.859,151.703 64.996,64.867 c -5.793,11.43 -8.082,24.598 -6.492,37.305 1.59,12.711 7.055,24.91 15.48,34.558 11.055,12.661 27.2,20.743 43.965,22.012 -7.914,-2.554 -15.164,-7.137 -20.863,-13.187 C 91.383,139.508 87.242,132 85.164,123.953 82.781,114.738 83.133,104.836 86.16,95.809 l 99.699,55.894"
       style="fill:#10b4fe;fill-opacity:1;fill-rule:nonzero;stroke:none"
       id="path16" /><path
       d="M 179.152,175.16 72.953,145.301 c -0.855,9.926 1.094,20.074 5.563,28.98 4.472,8.903 11.453,16.535 19.925,21.781 12.575,7.786 28.403,10.114 42.688,6.278 -14.309,0.094 -28.484,-7.012 -36.969,-18.528 -4.785,-6.5 -7.797,-14.296 -8.617,-22.328 l 83.609,13.676"
       style="fill:#10b4fe;fill-opacity:1;fill-rule:nonzero;stroke:none"
       id="path18" /><path
       d="m 227.582,108.516 c -1.973,4.089 -3.344,8.472 -4.059,12.957 -2.211,13.918 1.93,27.972 6.051,41.445 4.125,13.473 8.328,27.496 6.25,41.43 -1.554,10.41 -6.633,20.152 -13.742,27.914 -7.109,7.765 -16.184,13.605 -25.934,17.578 -16.062,6.551 -34.128,8.09 -51.066,4.351 v 46.325 l 13.93,-33.067 c 18.054,4.117 37.379,2.449 54.461,-4.695 12.234,-5.117 23.394,-13.082 31.445,-23.617 8.047,-10.532 12.848,-23.696 12.508,-36.942 -0.41,-15.925 -7.938,-30.683 -15.223,-44.855 -7.281,-14.168 -14.664,-29.043 -14.746,-44.973 -0.008,-1.285 0.035,-2.57 0.125,-3.851"
       style="fill:#10b4fe;fill-opacity:1;fill-rule:nonzero;stroke:none"
       id="path20" /></g></svg>
